# xmcd CD database file
#
# Track frame offsets:
#	150
#	11718
#	25603
#	39263
#	53245
#	65874
#	79537
#	94081
#	108433
#	122678
#	136988
#	149459
#	161475
#	173285
#	184929
#	196020
#	209922
#	223769
#	235255
#	249296
#	262438
#	276002
#	290465
#	303091
#	315394
#	328466
#
# Disc length: 4552 seconds
#
# Revision: 0
# Processed by: cddbd v1.5PL3 Copyright (c) Steve Scherf et al.
# Submitted via: CDex 1.51
#
DISCID=7d11c61a
DTITLE=Ella Fitzgerald - The Legendary, Vol. 4 [Compilation]
DYEAR=1900
DGENRE=Jazz
TTITLE0=Baby, Won't You Please Come Home
TTITLE1=Sing Song Swing
TTITLE2=Imagination
TTITLE3=Untitled Instrumental
TTITLE4=Shake Down the Stars
TTITLE5=Gulf Coast Blues
TTITLE6=I Fell in Love with a Dream
TTITLE7=Five O'Clock Whistle
TTITLE8=Louisville, K-Y
TTITLE9=Taking a Chance on Love
TTITLE10=Cabin in the Sky
TTITLE11=I'm the Lonesomest Gal in Town
TTITLE12=Three Litlle Words
TTITLE13=Hello Ma! I Done it Again
TTITLE14=The Muffin Man
TTITLE15=Keep Cool, Fool
TTITLE16=My Man
TTITLE17=I Can't Believe that You're in Love with Me
TTITLE18=I Must Have that Man
TTITLE19=I Got it Bad
TTITLE20=Jim
TTITLE21=Somebody Nobody Loves
TTITLE22=Make Love to Me
TTITLE23=Mama Come Home
TTITLE24=(I Put) A Four Leaf Clover in Your Pocket
TTITLE25=Cow Cow Boogie
EXTD=
EXTT0=
EXTT1=
EXTT2=
EXTT3=
EXTT4=
EXTT5=
EXTT6=
EXTT7=
EXTT8=
EXTT9=
EXTT10=
EXTT11=
EXTT12=
EXTT13=
EXTT14=
EXTT15=
EXTT16=
EXTT17=
EXTT18=
EXTT19=
EXTT20=
EXTT21=
EXTT22=
EXTT23=
EXTT24=
EXTT25=
PLAYORDER=
